<svg width="300" height="300" viewBox="0 0 300 300" fill="none" xmlns="http://www.w3.org/2000/svg">
<mask id="mask0_2_174" style="mask-type:luminance" maskUnits="userSpaceOnUse" x="75" y="0" width="145" height="160">
<path d="M75.1547 0H219.681V159.659H75.1547V0Z" fill="white"/>
</mask>
<g mask="url(#mask0_2_174)">
<path d="M179.508 19.5354C175.28 7.83723 159.383 12.6452 149.94 11.0668C142.126 9.75556 135.088 4.31017 127.293 2.40398C112.55 -1.18985 91.2897 5.62144 82.9689 17.7506C74.4877 30.1105 73.6281 47.7398 77.1117 61.6902C78.3883 66.8199 81.3587 71.4032 82.6867 76.533C85.1438 86.0214 86.1317 98.2417 85.5993 108.003C85.0989 117.061 73.4677 131.551 79.1518 140.069C82.4878 145.065 89.7885 147.639 95.2031 150.031C109.901 156.514 125.664 158.663 141.657 158.657C147.604 158.657 158.799 156.872 163.579 153.133C166.074 151.184 165.491 146.947 165.85 144.221C166.799 137.015 166.844 128.049 170.758 121.662C180.509 105.745 192.859 91.2118 203.707 75.938C208.634 68.9992 215.467 61.0892 217.552 52.7845C219.72 44.1338 218.873 30.4808 211.983 23.8942C203.887 16.148 191.127 16.4333 180.971 19.2683M143.646 12.4084C131.386 16.0084 122.905 33.6376 122.886 45.0626C122.738 48.7353 121.378 55.4374 125.401 57.5317C123.643 44.3887 126.401 24.7198 139.354 16.6518C148.278 11.0911 168.564 10.1684 176.114 18.4063C180.804 23.5178 180.843 31.5675 180.021 37.9417C178.687 48.3408 169.353 55.1703 165.035 64.0638C172.913 61.9755 181.946 45.4147 182.357 37.9417C182.774 30.4262 178.982 22.6132 188.945 20.0878C208.865 15.0249 215.909 32.2838 215.133 47.1813C214.28 52.7177 210.995 61.0345 207.781 65.8486C200.583 76.6301 193.513 88.3343 184.57 97.9078C181.722 100.967 173.228 114.244 167.941 108.234C166.138 106.176 168.48 103.292 169.635 101.471C173.625 95.1881 178.161 89.4513 182.023 83.065C174.292 86.6528 172.586 98.6727 164.406 103.25C160.127 105.648 151.614 102.09 150.767 97.3068C149.901 92.4199 153.083 85.9546 155.598 81.8812C149.952 85.815 151.383 93.3001 146.546 96.8758C144.018 98.7455 139.399 97.3493 136.66 96.7058C133.715 96.0137 129.173 95.692 127.043 93.4458C125.458 91.7825 126.036 88.6864 126.029 86.6285C126.023 82.0026 125.394 77.4314 124.143 72.9695C124.143 72.9695 125.555 87.964 122.347 91.7825C119.306 95.4067 106.873 94.2714 105.917 90.1798L104.64 76.533C102.985 80.8188 104.422 85.4386 102.773 89.5849C101.779 92.0921 96.1013 95.6009 94.3242 91.8735C92.7204 88.5043 93.625 82.6158 93.2529 78.9066C92.7332 73.7344 90.9305 67.9429 89.5447 62.88C89.5447 62.88 91.3346 78.5848 91.4309 86.0335C91.4694 89.2753 90.4365 96.5055 88.0756 93.1666C85.4581 86.756 86.2793 82.9132 84.5728 76.3326C83.2961 71.3911 80.4862 65.4054 79.1518 60.5003C75.6489 47.6487 77.0539 32.3749 84.0916 20.7192C93.163 5.7125 117.606 -0.200335 133.58 6.91449C136.903 8.39573 141.567 9.40954 143.646 12.4084ZM104.012 36.1569L104.506 36.9461C105.243 28.1376 111.184 16.4151 121 14.1872C111.319 10.393 100.791 28.8114 104.012 36.1569ZM195.868 29.6249C197.946 34.4207 199.986 38.828 198.921 44.1702C198.524 48.4257 195.617 53.3308 194.604 57.5317C201.205 52.3535 204.31 34.9549 195.868 29.6249ZM163.778 147.189C140.265 135.516 106.295 129.372 80.1077 135.91C80.5567 126.646 86.8246 118.469 87.5945 109.193C87.8575 106.049 86.754 100.257 89.2881 97.7317C93.1759 93.8586 102.664 94.8846 107.79 94.9453C124.669 95.1335 143.248 98.102 158.119 105.97C161.898 107.973 167.896 109.788 170.308 113.37C172.464 116.563 168.243 120.448 167.152 123.441C164.631 130.331 163.784 139.893 163.778 147.189ZM158.35 147.924C161.397 149.745 163.316 151.214 160.66 152.732C145.128 159.683 126.748 156.186 110.934 150.862C106.86 149.49 95.1262 146.734 95.5496 141.277C95.9922 135.522 106.103 136.438 109.965 136.438C126.78 137.094 143.011 140.081 158.35 147.924Z" fill="black"/>
</g>
<path d="M14.2181 244.127C12.6592 232.805 10.9911 221.38 9.32956 209.961C9.12426 207.794 8.70726 205.73 8.3929 203.66C8.29026 202.482 7.5589 202.088 6.41695 202.282C4.96065 202.482 3.50435 202.774 2.04805 202.877C0.694395 203.071 0.277393 203.763 0.174746 204.941C-0.0369622 206.616 -0.0369622 208.292 0.0720996 209.961C0.489102 217.446 1.00875 224.828 2.1507 232.113C3.29264 239.204 4.74894 246.191 7.14189 253.081C8.3929 256.626 11.1002 258.102 14.8468 258.697C17.0281 258.988 17.9647 258.496 19.1067 256.529C20.1524 254.757 20.7747 252.79 21.1917 250.817C23.5846 240.976 24.9383 231.032 26.5999 221.186C26.9142 219.219 26.8052 217.149 27.7418 215.279C28.4732 215.279 28.6785 215.771 28.9928 216.068C30.8661 218.229 33.0474 220.105 35.3377 221.878C38.045 224.136 41.4772 225.126 44.8068 226.303C45.4291 226.504 46.3658 226.795 46.7828 225.812C47.1998 224.828 46.3658 224.531 45.7435 224.136C44.9095 223.644 44.1845 223.256 43.4532 222.861C38.7699 220.3 35.235 216.754 33.4644 211.831C33.1564 210.848 32.7394 209.961 32.3224 208.978C30.2438 203.368 30.2438 203.466 23.8926 204.449C22.231 204.649 21.814 205.432 21.6087 206.811C20.4603 214.69 19.3184 222.564 18.0674 230.541C17.2334 235.755 16.4058 240.976 14.7378 245.997C14.5325 245.402 14.3208 244.813 14.2181 244.127Z" fill="black"/>
<path d="M74.6604 221.483C72.8898 220.888 72.6845 220.888 71.6452 222.661C71.5361 222.959 71.3308 223.353 71.1191 223.645C67.6869 230.049 64.2546 236.344 60.8224 242.749C60.2001 243.927 59.5714 245.007 58.8464 246.094C57.8071 247.569 56.8705 247.472 55.9338 245.997C55.0998 244.515 54.5802 242.846 54.2658 241.268C53.5409 237.036 53.5409 232.702 53.3292 228.471C53.0212 220.694 53.8488 212.918 54.4775 205.141C54.7855 201.298 54.6828 201.201 50.4166 201.104C50.2113 201.104 49.8969 201.104 49.589 201.104C48.5433 201.007 47.921 201.396 47.6066 202.385C47.2987 203.168 46.8817 203.86 46.67 204.747C44.694 212.031 43.4494 219.413 43.4494 227.487C43.3404 231.227 43.6547 235.458 44.694 239.695C45.4254 242.354 46.362 244.813 48.1263 246.98C52.5016 252.298 61.5473 251.8 65.0886 245.997C66.0253 244.418 66.8593 242.646 67.5842 240.976C70.1825 235.361 72.7871 229.752 75.3854 224.136C75.8024 223.056 76.322 222.072 74.6604 221.483ZM52.7069 195.883C55.5168 195.786 57.1784 194.311 57.1784 191.846C57.1784 189.485 55.4142 188.01 52.3925 188.107C50.1086 188.107 48.2353 190.177 48.338 192.538C48.338 194.803 49.7943 195.883 52.7069 195.883Z" fill="black"/>
<path d="M91.8235 202.676C89.2189 213.998 87.9743 225.417 88.0769 236.939C88.0769 243.04 89.1162 248.947 92.3432 254.459C92.9655 255.546 93.6968 256.626 94.6335 257.61C97.5461 260.858 106.387 261.058 110.133 257.61C113.148 254.757 115.541 251.509 117.517 247.964C122.201 239.695 125.216 230.735 128.026 221.775C128.34 220.694 128.648 219.614 128.86 218.527C129.065 218.035 129.174 217.543 128.648 217.246C127.506 216.56 126.255 216.657 125.01 216.657C124.074 216.657 123.862 217.641 123.657 218.333C122.098 222.37 120.43 226.504 118.974 230.638C116.895 236.642 114.605 242.749 111.172 248.261C109.511 250.92 107.74 253.476 105.245 255.546C103.577 256.924 102.954 256.827 102.223 254.757C100.978 251.309 100.561 247.666 100.35 244.024C100.042 235.361 100.561 226.795 101.915 218.229C102.743 213.209 103.679 208.189 104.308 203.071C104.828 199.429 103.371 197.953 99.4194 197.953C96.7121 197.953 93.9021 197.953 91.1948 197.753C88.8019 197.656 86.4089 197.359 84.433 196.278C82.1426 194.997 79.7497 194.9 77.3632 194.602C75.7978 194.408 74.8611 194.803 74.6558 196.375C74.5532 197.164 74.3415 197.856 74.2388 198.542C73.9245 203.071 73.4048 207.6 73.0969 212.226C72.5773 221.878 71.5315 231.427 69.8699 240.976C69.3503 243.435 68.9333 245.894 68.9333 248.358C68.9333 249.044 68.8306 249.639 69.6582 250.034C72.4682 251.114 74.1362 250.325 74.8611 247.666C74.8611 247.375 74.9702 247.077 74.9702 246.78C77.9855 233.983 80.1667 221.089 81.0007 207.994C81.2124 205.238 81.5204 202.482 81.7321 199.429C85.1643 200.315 88.4939 200.412 91.9262 200.807C92.2405 201.693 91.9262 202.185 91.8235 202.676Z" fill="black"/>
<path d="M122.191 238.512C123.128 243.629 124.584 248.656 127.189 253.282C128.434 255.346 129.999 257.118 132.495 257.907C138.839 259.777 144.767 258.794 148.616 253.379C149.245 252.59 149.765 251.8 150.182 251.017C154.653 243.137 156.629 234.475 159.234 226.012C159.337 225.52 159.542 225.023 159.125 224.731C158.086 223.942 156.841 223.547 155.59 223.645C154.448 223.748 154.339 224.731 154.031 225.52C152.677 229.26 151.426 232.999 149.97 236.739C147.994 241.662 146.435 246.683 143.523 251.114C142.894 252.098 142.272 252.984 141.547 253.87C139.359 256.038 138.005 255.837 136.652 253.184C136.241 252.395 135.927 251.509 135.612 250.623C134.573 246.094 133.636 241.662 133.636 237.134C133.431 229.163 133.534 221.186 134.156 213.209C134.573 206.027 134.99 198.937 135.927 191.846C136.241 188.993 136.241 188.993 139.256 188.799C147.372 188.404 155.487 188.01 163.603 187.518C164.43 187.518 165.367 187.318 166.201 187.221C166.932 187.123 167.138 186.729 167.24 186.14C167.555 184.07 167.138 183.384 164.847 183.281C162.352 183.184 159.754 183.184 157.252 183.086C151.324 182.989 145.499 183.578 139.571 183.578C136.761 183.675 136.761 183.578 136.966 181.016C137.069 179.347 137.178 177.671 137.178 175.996C137.178 173.932 136.966 173.732 134.887 173.634C133.014 173.537 131.141 173.634 129.268 173.537C127.709 173.537 126.977 174.126 126.458 175.407C125.521 177.769 124.693 180.233 124.276 182.692C123.962 184.07 123.231 184.659 121.672 184.762C119.073 184.956 116.469 185.351 113.871 185.745C111.997 185.94 111.683 186.431 111.683 188.01C111.683 189.782 113.037 189.685 114.185 189.685C116.161 189.782 118.034 189.782 120.01 189.685C122.711 189.685 122.711 189.685 122.403 192.144C121.364 199.526 120.53 206.914 120.735 214.885C120.318 222.467 120.838 230.438 122.191 238.512Z" fill="black"/>
<path d="M185.654 222.758C185.654 222.861 185.654 222.959 185.654 222.959C185.551 223.056 185.551 223.056 185.442 223.056C185.551 225.715 185.237 228.276 185.025 230.832C184.614 237.528 184.505 244.224 185.442 250.92C185.859 253.379 186.481 255.837 187.418 258.205C188.566 261.058 190.748 262.63 194.077 262.734C197.407 262.831 200.011 261.944 201.57 258.891C202.193 257.513 202.821 256.135 203.341 254.757C206.459 246.683 208.852 238.317 211.457 230.049C212.598 226.795 212.496 226.795 208.852 226.504C207.71 226.401 206.979 226.795 206.671 227.785C206.254 228.962 205.734 230.049 205.317 231.227C202.821 238.609 200.217 245.997 197.618 253.379C197.201 254.562 196.887 255.837 195.745 257.021C195.226 255.643 195.014 254.362 195.014 253.081C194.911 250.131 194.809 247.174 194.809 244.127C194.911 232.113 196.47 220.105 196.99 208.091C197.099 206.416 197.099 204.747 196.887 203.071C196.682 201.79 195.95 201.298 194.706 201.396C193.352 201.499 191.999 201.693 190.645 201.596C188.772 201.499 187.944 202.282 187.315 203.763C185.134 208.978 182.844 214.199 180.656 219.51C177.846 225.909 175.248 232.411 171.501 238.414C170.879 239.301 170.462 240.284 169.628 240.976C168.486 242.057 167.549 241.96 166.927 240.582C166.093 238.809 165.779 236.836 165.573 234.869C164.637 227.785 165.156 220.694 165.888 213.506C166.298 208.784 166.51 204.054 166.715 199.331C166.818 197.559 166.613 197.359 164.842 197.462C162.449 197.559 160.165 197.753 157.772 197.953C157.041 198.051 156.521 198.445 156.419 199.131C156.316 199.92 156.104 200.612 156.002 201.396C154.648 211.048 154.443 220.791 154.86 230.541C154.962 234.183 155.585 237.923 157.253 241.365C158.183 243.04 159.229 244.515 161.102 245.402C165.779 247.569 171.918 246.191 175.248 242.451C176.807 240.582 178.058 238.609 178.994 236.448C180.765 232.805 182.427 229.163 184.088 225.52C184.505 224.731 184.614 223.645 185.442 223.153C185.551 223.056 185.551 222.861 185.654 222.758Z" fill="black"/>
<path d="M262.735 222.661C261.073 221.975 260.759 222.072 259.72 224.039C257.43 228.276 255.351 232.605 253.061 236.739C250.353 241.759 247.755 246.78 244.323 251.309C243.803 252.098 243.386 253.081 242.244 253.379C241.616 252.195 241.616 251.114 241.616 249.93C241.513 246.094 241.616 242.154 241.93 238.317C242.552 227.785 243.181 217.349 243.284 206.811C243.284 205.633 243.284 204.449 242.969 203.265C242.764 202.676 242.552 202.088 241.827 202.088C238.915 202.088 236.002 201.79 233.192 202.676C232.255 202.974 231.627 203.071 230.69 202.877C228.406 202.385 226.116 201.99 223.723 202.482C216.441 203.763 211.963 208.189 209.16 214.296C206.767 219.413 206.036 224.828 206.453 230.34C206.555 232.999 207.075 235.658 208.223 238.22C209.263 240.776 211.341 241.863 214.151 241.863C216.441 241.96 218.417 241.171 219.976 239.598C221.433 238.02 222.786 236.247 223.928 234.377C225.077 232.508 226.218 230.638 227.469 228.665C228.194 229.26 227.887 229.849 227.989 230.34C228.194 234.183 228.297 238.117 229.028 241.96C229.651 246.191 230.485 250.422 232.672 254.265C235.585 259.383 243.181 260.269 247.338 255.94C248.897 254.362 250.148 252.589 251.187 250.623C255.665 242.451 259.925 234.08 263.883 225.617C264.82 223.644 264.711 223.45 262.735 222.661ZM230.69 209.864C230.587 210.945 230.382 212.128 229.862 213.112C226.321 220.992 222.472 228.665 217.795 235.956C217.064 237.036 216.544 238.712 214.876 238.317C213.214 237.923 214.048 236.15 213.837 234.966C213.837 234.475 213.837 233.886 213.837 233.297C214.048 226.206 215.505 219.316 219.559 213.112C220.708 211.442 221.952 209.767 223.518 208.292C224.345 207.503 225.282 206.914 226.533 206.616C229.234 205.924 231.004 207.205 230.69 209.864Z" fill="black"/>
<path d="M256.9 217.543C257.529 224.828 258.883 232.016 261.583 239.003C262.937 242.749 264.81 246.288 267.518 249.439C269.494 251.8 272.092 253.184 275.319 253.476C280.31 253.968 284.371 252.589 287.489 248.85C288.426 247.769 289.26 246.586 290.094 245.505C294.565 238.906 296.855 231.524 299.871 224.337C299.973 224.039 299.973 223.748 299.973 223.547C300.076 223.153 299.871 222.758 299.556 222.564C297.895 221.483 296.021 221.975 295.187 223.645C294.982 224.239 294.77 224.731 294.565 225.223C291.653 231.227 289.157 237.431 285.725 243.137C284.679 244.91 283.537 246.683 281.869 248.061C278.751 250.817 276.461 250.422 274.587 246.883C274.485 246.683 274.28 246.391 274.17 246.094C271.778 240.09 270.321 233.886 270.013 227.487C269.911 226.401 270.219 225.52 270.95 224.634C278.02 215.473 283.017 205.335 287.386 194.9C289.362 190.177 290.613 185.254 290.921 180.233C291.236 176.688 290.921 173.24 289.465 169.895C287.386 165.269 282.703 162.907 277.5 163.891C273.343 164.674 270.219 166.938 267.62 169.992C264.599 173.634 262.623 177.768 261.064 182.006C257.734 190.96 256.695 200.121 256.49 210.259C256.592 212.128 256.592 214.787 256.9 217.543ZM268.974 216.851C268.14 202.676 269.494 188.696 274.799 175.31C275.524 173.537 276.256 171.862 277.397 170.289C279.065 168.025 280.413 168.122 281.766 170.684C283.434 173.731 283.954 176.985 283.742 180.427C283.434 187.518 281.664 194.311 278.751 200.807C276.563 205.827 274.28 210.75 271.572 215.473C270.95 216.36 270.43 217.349 269.699 218.43C268.865 217.841 268.974 217.349 268.974 216.851Z" fill="black"/>
<path d="M120.198 296.995L120.031 296.88C119.004 298.076 117.118 298.664 115.373 298.664C110.934 298.664 107.944 294.731 107.944 290.123C107.944 285.898 110.189 283.84 113.102 283.84C116.759 283.84 118.266 286.984 117.022 290.123L117.092 290.147L120.557 285.74C119.46 284.471 117.522 283.366 114.443 283.366C109.522 283.366 104.39 286.213 104.39 291.635C104.39 296.364 108.374 299.818 113.75 299.818C117.067 299.818 119.171 298.531 120.198 296.995Z" fill="black"/>
<path d="M146.31 283.797V283.682H139.414V283.797C140.389 283.907 141.223 284.156 141.223 284.969V291.501H133.011V284.969C133.011 284.156 133.845 283.907 134.827 283.797V283.682H127.924V283.797C128.899 283.907 129.739 284.156 129.739 284.969V298.215C129.739 299.029 128.899 299.278 127.924 299.387V299.502H134.827V299.387C133.845 299.278 133.011 299.029 133.011 298.215V291.884H141.223V298.215C141.223 299.029 140.389 299.278 139.414 299.387V299.502H146.31V299.387C145.335 299.278 144.501 299.029 144.501 298.215V284.969C144.501 284.156 145.335 283.907 146.31 283.797Z" fill="black"/>
<path d="M168.103 294.688C166.146 297.717 164.639 299.138 161.559 299.138H158.409V291.774H160.417C163.375 291.774 164.497 292.381 165.075 294.439V288.721C164.497 290.803 163.375 291.41 160.417 291.41H158.409V284.046H161.418C164.497 284.046 165.428 285.175 167.243 287.707L167.339 287.658L166.454 283.682H153.322V283.797C154.297 283.907 155.137 284.156 155.137 284.969V297.76C155.137 298.573 154.297 299.053 153.322 299.387V299.502H165.979L166.794 300L166.935 299.502L168.199 294.731L168.103 294.688Z" fill="black"/>
<path d="M188.491 283.682H175.211V283.797C176.187 283.907 177.027 284.156 177.027 284.969V297.76C177.027 298.573 176.187 299.053 175.211 299.387V299.502H182.114V299.387C181.133 299.278 180.299 299.029 180.299 298.215V291.999H182.519C185.457 291.999 186.605 292.612 187.176 294.664V288.945C186.605 291.028 185.457 291.635 182.519 291.635H180.299V284.046H183.449C186.528 284.046 187.465 285.175 189.28 287.707L189.377 287.658L188.491 283.682Z" fill="black"/>
</svg>
