<svg width="35" height="35" viewBox="0 0 35 35" fill="none" xmlns="http://www.w3.org/2000/svg">
<g clip-path="url(#clip0_8_114)">
<path d="M33.012 14.8547L28.875 14.1785C28.6328 13.3483 28.3017 12.5503 27.8873 11.795L30.3023 8.35312C30.4976 8.07522 30.464 7.69652 30.2239 7.45572L27.5016 4.73482C27.2587 4.49262 26.8765 4.46112 26.5979 4.66202L23.2078 7.09872C22.4455 6.67732 21.6405 6.34272 20.8054 6.09982L20.0837 1.97962C20.0249 1.64502 19.7344 1.40002 19.3942 1.40002H15.5442C15.2012 1.40002 14.9086 1.64852 14.8533 1.98732L14.1841 6.08512C13.3441 6.32662 12.5377 6.65772 11.7782 7.07352L8.3972 4.65852C8.1179 4.45902 7.7378 4.49122 7.4949 4.73272L4.774 7.45362C4.5339 7.69372 4.5003 8.07172 4.6956 8.34962L7.0749 11.7537C6.6514 12.5202 6.314 13.3315 6.0683 14.1757L1.9866 14.8554C1.6492 14.9114 1.4014 15.204 1.4014 15.5456V19.3956C1.4014 19.7351 1.645 20.0256 1.9789 20.0851L6.0606 20.8089C6.3049 21.651 6.6423 22.4623 7.0672 23.2309L4.6585 26.6C4.4597 26.8779 4.4912 27.2594 4.7327 27.5023L7.4543 30.226C7.6944 30.4661 8.0731 30.4997 8.351 30.3044L11.76 27.9167C12.5251 28.3374 13.3336 28.6713 14.1715 28.9135L14.8547 33.0162C14.91 33.3529 15.2019 33.6 15.5442 33.6H19.3942C19.7337 33.6 20.0242 33.3564 20.083 33.0225L20.8145 28.8995C21.6538 28.6524 22.4581 28.3164 23.2155 27.895L26.649 30.3037C26.9276 30.5004 27.3056 30.4661 27.5464 30.226L30.268 27.5023C30.5102 27.2594 30.5417 26.8765 30.3408 26.5979L27.8922 23.198C28.3073 22.442 28.637 21.6426 28.8771 20.8124L33.0197 20.0851C33.355 20.0263 33.5986 19.7351 33.5986 19.3956V15.5456C33.5993 15.2026 33.3508 14.91 33.012 14.8547ZM17.5 22.4C14.7938 22.4 12.6 20.2062 12.6 17.5C12.6 14.7938 14.7938 12.6 17.5 12.6C20.2062 12.6 22.4 14.7938 22.4 17.5C22.4 20.2062 20.2062 22.4 17.5 22.4Z" fill="white"/>
</g>
<defs>
<clipPath id="clip0_8_114">
<rect width="35" height="35" fill="white"/>
</clipPath>
</defs>
</svg>
