<svg width="100" height="100" viewBox="0 0 100 100" fill="none" xmlns="http://www.w3.org/2000/svg">
<mask id="mask0_2_175" style="mask-type:luminance" maskUnits="userSpaceOnUse" x="25" y="0" width="49" height="54">
<path d="M25.0516 0H73.2271V53.2195H25.0516V0Z" fill="white"/>
</mask>
<g mask="url(#mask0_2_175)">
<path d="M59.8361 6.51183C58.4268 2.61243 53.1277 4.21509 49.9798 3.68896C47.3752 3.25188 45.0293 1.43674 42.431 0.801348C37.5168 -0.396598 30.4299 1.87383 27.6563 5.9169C24.8292 10.0369 24.5427 15.9133 25.7039 20.5634C26.1294 22.2733 27.1196 23.8011 27.5622 25.511C28.3813 28.6738 28.7106 32.7472 28.5331 36.0011C28.3663 39.0203 24.4892 43.8505 26.3839 46.6895C27.4959 48.3549 29.9295 49.2129 31.7344 50.0102C36.6336 52.1714 41.8879 52.8877 47.2191 52.8857C49.2014 52.8857 52.9331 52.2908 54.5262 51.0442C55.3581 50.3947 55.1635 48.9822 55.2833 48.0737C55.5998 45.6717 55.6147 42.6829 56.9192 40.5541C60.1697 35.2484 64.2862 30.404 67.9024 25.3127C69.5447 22.9998 71.8222 20.3631 72.5172 17.5948C73.24 14.7113 72.9577 10.1603 70.661 7.96474C67.9623 5.38268 63.7088 5.47779 60.3236 6.42279M47.882 4.13617C43.7954 5.33614 40.9683 11.2125 40.9619 15.0209C40.9127 16.2451 40.4594 18.4791 41.8002 19.1773C41.2142 14.7963 42.1338 8.23994 46.4514 5.55064C49.426 3.69706 56.1878 3.38948 58.7048 6.13544C60.268 7.83928 60.2809 10.5225 60.0071 12.6473C59.5623 16.1136 56.4509 18.3901 55.0117 21.3546C57.6377 20.6585 60.6487 15.1382 60.7856 12.6473C60.9246 10.1421 59.6607 7.53777 62.9818 6.69597C69.6217 5.00832 71.9698 10.7613 71.711 15.7271C71.4266 17.5726 70.3317 20.3449 69.2603 21.9495C66.861 25.5434 64.5044 29.4448 61.5233 32.6359C60.5738 33.6558 57.7425 38.0813 55.9804 36.078C55.3795 35.392 56.16 34.4308 56.545 33.8238C57.8751 31.7294 59.387 29.8171 60.6744 27.6883C58.0975 28.8843 57.5287 32.8909 54.8021 34.4167C53.3757 35.216 50.538 34.0302 50.2557 32.4356C49.967 30.8067 51.0277 28.6516 51.866 27.2938C49.9841 28.605 50.461 31.1001 48.8486 32.2919C48.006 32.9152 46.4663 32.4498 45.5532 32.2353C44.5716 32.0046 43.0576 31.8973 42.3476 31.1486C41.8194 30.5942 42.0119 29.5622 42.0097 28.8762C42.0076 27.3342 41.798 25.8105 41.381 24.3232C41.381 24.3232 41.8515 29.3214 40.7823 30.5942C39.7686 31.8022 35.6243 31.4238 35.3056 30.06L34.8801 25.511C34.3284 26.9396 34.8074 28.4796 34.2578 29.8616C33.9263 30.6974 32.0338 31.867 31.4414 30.6245C30.9068 29.5015 31.2083 27.5386 31.0843 26.3022C30.9111 24.5781 30.3102 22.6477 29.8482 20.96C29.8482 20.96 30.4449 26.195 30.477 28.6779C30.4898 29.7584 30.1455 32.1685 29.3585 31.0555C28.486 28.9187 28.7598 27.6378 28.1909 25.4442C27.7654 23.797 26.8287 21.8018 26.3839 20.1668C25.2163 15.8829 25.6846 10.7916 28.0305 6.90642C31.0543 1.90419 39.2019 -0.0667581 44.5267 2.30485C45.6345 2.7986 47.1891 3.13653 47.882 4.13617ZM34.6705 12.0523L34.8352 12.3154C35.0811 9.37921 37.0613 5.47172 40.3332 4.72907C37.1062 3.46435 33.597 9.60382 34.6705 12.0523ZM65.2892 9.87498C65.982 11.4736 66.6621 12.9427 66.3071 14.7234C66.1745 16.1419 65.2058 17.777 64.8679 19.1773C67.0684 17.4512 68.1034 11.6517 65.2892 9.87498ZM54.5925 49.0632C46.755 45.1719 35.4318 43.124 26.7026 45.3034C26.8522 42.2155 28.9415 39.4897 29.1982 36.3977C29.2858 35.3495 28.918 33.4191 29.7627 32.5773C31.0586 31.2862 34.2214 31.6282 35.9301 31.6485C41.5564 31.7112 47.7494 32.7007 52.7064 35.3232C53.966 35.991 55.9654 36.596 56.7695 37.7899C57.488 38.8543 56.0809 40.1494 55.7174 41.147C54.8769 43.4438 54.5947 46.6309 54.5925 49.0632ZM52.7834 49.308C53.7992 49.9151 54.4386 50.4048 53.5532 50.9107C48.376 53.2277 42.2493 52.0621 36.9779 50.2874C35.62 49.8301 31.7087 48.9114 31.8499 47.0922C31.9974 45.1739 35.3676 45.4795 36.655 45.4795C42.26 45.698 47.6703 46.6936 52.7834 49.308Z" fill="black"/>
</g>
<path d="M4.73937 81.3756C4.21972 77.6017 3.66372 73.7934 3.10985 69.987C3.04142 69.2646 2.90242 68.5766 2.79763 67.8866C2.76342 67.494 2.51963 67.3625 2.13898 67.4272C1.65355 67.494 1.16812 67.5911 0.682683 67.6255C0.231465 67.6903 0.0924644 67.921 0.0582488 68.3136C-0.0123207 68.8721 -0.0123207 69.4306 0.0240332 69.987C0.163034 72.4821 0.336251 74.9427 0.716899 77.371C1.09755 79.7345 1.58298 82.0636 2.38063 84.3604C2.79763 85.5421 3.70007 86.0338 4.94894 86.2322C5.67602 86.3293 5.98824 86.1654 6.36889 85.5097C6.71746 84.9189 6.92489 84.2632 7.06389 83.6056C7.86154 80.3254 8.31276 77.0108 8.86662 73.7286C8.97141 73.073 8.93506 72.3829 9.24727 71.7597C9.49106 71.7597 9.55949 71.9236 9.66427 72.0227C10.2887 72.7431 11.0158 73.3684 11.7792 73.9593C12.6817 74.712 13.8257 75.0419 14.9356 75.4345C15.143 75.5012 15.4553 75.5984 15.5943 75.2705C15.7333 74.9427 15.4553 74.8436 15.2478 74.712C14.9698 74.5481 14.7282 74.4186 14.4844 74.2871C12.9233 73.4332 11.745 72.2514 11.1548 70.6103C11.0521 70.2825 10.9131 69.987 10.7741 69.6592C10.0813 67.7895 10.0813 67.8218 7.96419 68.1497C7.41032 68.2164 7.27132 68.4775 7.20289 68.9368C6.8201 71.5634 6.43946 74.1879 6.02245 76.8469C5.74445 78.5851 5.46859 80.3254 4.91258 81.9989C4.84415 81.8006 4.77358 81.6043 4.73937 81.3756Z" fill="black"/>
<path d="M24.8868 73.8278C24.2966 73.6295 24.2282 73.6295 23.8817 74.2203C23.8454 74.3195 23.7769 74.451 23.7064 74.5482C22.5623 76.683 21.4182 78.7814 20.2741 80.9163C20.0667 81.3089 19.8571 81.669 19.6155 82.0313C19.269 82.523 18.9568 82.4906 18.6446 81.9989C18.3666 81.5051 18.1934 80.9487 18.0886 80.4225C17.847 79.0121 17.847 77.5673 17.7764 76.1569C17.6737 73.5647 17.9496 70.9725 18.1592 68.3804C18.2618 67.0994 18.2276 67.0671 16.8055 67.0347C16.7371 67.0347 16.6323 67.0347 16.5297 67.0347C16.1811 67.0023 15.9737 67.1318 15.8689 67.4617C15.7662 67.7227 15.6272 67.9534 15.5567 68.2488C14.898 70.6771 14.4831 73.1377 14.4831 75.8291C14.4468 77.0756 14.5516 78.486 14.898 79.8984C15.1418 80.7848 15.454 81.6043 16.0421 82.3267C17.5005 84.0993 20.5158 83.9334 21.6962 81.9989C22.0084 81.4728 22.2864 80.8819 22.5281 80.3254C23.3942 78.4536 24.2624 76.5839 25.1285 74.7121C25.2675 74.3519 25.4407 74.0241 24.8868 73.8278ZM17.569 65.2944C18.5056 65.2621 19.0595 64.7703 19.0595 63.9488C19.0595 63.1616 18.4714 62.6699 17.4642 62.7023C16.7029 62.7023 16.0784 63.3923 16.1127 64.1794C16.1127 64.9342 16.5981 65.2944 17.569 65.2944Z" fill="black"/>
<path d="M30.6078 67.5588C29.7396 71.3327 29.3248 75.139 29.359 78.9798C29.359 81.0134 29.7054 82.9823 30.7811 84.8197C30.9885 85.182 31.2323 85.5421 31.5445 85.87C32.5154 86.9526 35.4622 87.0193 36.711 85.87C37.7161 84.9189 38.5138 83.8363 39.1724 82.6545C40.7335 79.8984 41.7386 76.9117 42.6752 73.9249C42.78 73.5647 42.8827 73.2045 42.9532 72.8423C43.0217 72.6784 43.058 72.5145 42.8827 72.4153C42.502 72.1867 42.085 72.219 41.6702 72.219C41.3579 72.219 41.2874 72.5469 41.2189 72.7776C40.6993 74.1232 40.1433 75.5013 39.6579 76.8793C38.965 78.8806 38.2016 80.9163 37.0575 82.7537C36.5036 83.64 35.9134 84.4919 35.0815 85.182C34.5255 85.6413 34.3181 85.6089 34.0743 84.9189C33.6594 83.7695 33.5204 82.5554 33.4499 81.3412C33.3472 78.4536 33.5204 75.5984 33.9717 72.7432C34.2475 71.0697 34.5597 69.3962 34.7693 67.6903C34.9425 66.4762 34.4571 65.9845 33.1398 65.9845C32.2374 65.9845 31.3007 65.9845 30.3983 65.9177C29.6006 65.8853 28.803 65.7862 28.1443 65.426C27.3809 64.999 26.5832 64.9666 25.7877 64.8675C25.2659 64.8027 24.9537 64.9342 24.8853 65.4583C24.8511 65.7214 24.7805 65.9521 24.7463 66.1808C24.6415 67.6903 24.4683 69.1999 24.3656 70.7419C24.1924 73.9593 23.8438 77.1424 23.29 80.3254C23.1168 81.145 22.9778 81.9645 22.9778 82.7861C22.9778 83.0147 22.9435 83.213 23.2194 83.3446C24.1561 83.7048 24.7121 83.4417 24.9537 82.5554C24.9537 82.4582 24.9901 82.3591 24.9901 82.2599C25.9951 77.9943 26.7222 73.6962 27.0002 69.3314C27.0708 68.4127 27.1734 67.494 27.244 66.4762C28.3881 66.7716 29.498 66.804 30.6421 66.9355C30.7468 67.231 30.6421 67.3949 30.6078 67.5588Z" fill="black"/>
<path d="M40.7305 79.5039C41.0427 81.2097 41.5281 82.8853 42.3963 84.4272C42.8112 85.1152 43.333 85.7061 44.1648 85.9692C46.2798 86.5924 48.2557 86.2646 49.5388 84.4596C49.7484 84.1965 49.9216 83.9335 50.0606 83.6724C51.5511 81.0458 52.2098 78.1582 53.078 75.3374C53.1122 75.1735 53.1806 75.0075 53.0416 74.9104C52.6952 74.6474 52.2803 74.5158 51.8633 74.5482C51.4827 74.5826 51.4463 74.9104 51.3437 75.1735C50.8925 76.42 50.4755 77.6665 49.99 78.913C49.3314 80.5541 48.8117 82.2276 47.8409 83.7048C47.6313 84.0326 47.4239 84.3281 47.1822 84.6235C46.453 85.3459 46.0018 85.2791 45.5506 84.3948C45.4137 84.1318 45.3089 83.8363 45.2041 83.5409C44.8577 82.0313 44.5455 80.5541 44.5455 79.0445C44.4771 76.3876 44.5113 73.7287 44.7187 71.0697C44.8577 68.6758 44.9967 66.3123 45.3089 63.9488C45.4137 62.9977 45.4137 62.9977 46.4188 62.933C49.124 62.8015 51.8291 62.6699 54.5343 62.506C54.8102 62.506 55.1224 62.4392 55.4004 62.4069C55.6442 62.3745 55.7126 62.243 55.7468 62.0467C55.8516 61.3566 55.7126 61.128 54.9492 61.0936C54.1173 61.0612 53.2512 61.0612 52.4172 61.0288C50.4413 60.9964 48.4995 61.1927 46.5236 61.1927C45.5869 61.2251 45.5869 61.1927 45.6554 60.3388C45.6896 59.7823 45.7259 59.2238 45.7259 58.6653C45.7259 57.9773 45.6554 57.9105 44.9625 57.8781C44.3381 57.8458 43.7136 57.8781 43.0892 57.8458C42.5695 57.8458 42.3258 58.042 42.1525 58.469C41.8403 59.2562 41.5645 60.0777 41.4255 60.8973C41.3207 61.3566 41.0769 61.5529 40.5572 61.5873C39.6912 61.6521 38.8229 61.7836 37.9568 61.9151C37.3324 61.9799 37.2276 62.1438 37.2276 62.6699C37.2276 63.2608 37.6788 63.2284 38.0616 63.2284C38.7203 63.2608 39.3447 63.2608 40.0034 63.2284C40.9037 63.2284 40.9037 63.2284 40.801 64.048C40.4546 66.5086 40.1766 68.9713 40.245 71.6282C40.106 74.1556 40.2792 76.8126 40.7305 79.5039Z" fill="black"/>
<path d="M61.8846 74.2528C61.8846 74.2872 61.8846 74.3195 61.8846 74.3195C61.8504 74.3519 61.8504 74.3519 61.814 74.3519C61.8504 75.2382 61.7456 76.0922 61.675 76.9441C61.5381 79.1761 61.5018 81.4081 61.814 83.64C61.953 84.4596 62.1604 85.2791 62.4726 86.0683C62.8554 87.0194 63.5825 87.5435 64.6924 87.5779C65.8023 87.6103 66.6705 87.3148 67.1901 86.297C67.3976 85.8376 67.6071 85.3783 67.7803 84.9189C68.8196 82.2276 69.6173 79.4391 70.4855 76.683C70.8662 75.5984 70.8319 75.5984 69.6173 75.5013C69.2366 75.4669 68.9929 75.5984 68.8902 75.9283C68.7512 76.3208 68.578 76.683 68.439 77.0756C67.6071 79.5363 66.7389 81.9989 65.8728 84.4596C65.7338 84.8542 65.629 85.2791 65.2484 85.6737C65.0752 85.2144 65.0046 84.7874 65.0046 84.3604C64.9704 83.377 64.9362 82.3915 64.9362 81.3757C64.9704 77.3711 65.49 73.3685 65.6633 69.3638C65.6996 68.8053 65.6996 68.2489 65.629 67.6904C65.5606 67.2634 65.3168 67.0995 64.902 67.1319C64.4507 67.1663 63.9995 67.231 63.5483 67.1986C62.9239 67.1663 62.648 67.4273 62.4384 67.921C61.7114 69.6593 60.9479 71.3995 60.2187 73.1702C59.282 75.303 58.416 77.4702 57.1671 79.4715C56.9597 79.7669 56.8207 80.0948 56.5427 80.3254C56.162 80.6856 55.8498 80.6533 55.6424 80.1939C55.3644 79.603 55.2596 78.9454 55.1911 78.2898C54.8789 75.9283 55.0521 73.5647 55.2959 71.1689C55.4328 69.5945 55.5034 68.0182 55.5718 66.4438C55.606 65.853 55.5376 65.7862 54.9474 65.8206C54.1497 65.853 53.3884 65.9177 52.5908 65.9845C52.347 66.0169 52.1738 66.1484 52.1395 66.3771C52.1053 66.6401 52.0348 66.8708 52.0005 67.1319C51.5493 70.3493 51.4809 73.5971 51.6199 76.847C51.6541 78.0611 51.8615 79.3076 52.4175 80.455C52.7276 81.0135 53.0762 81.5052 53.7006 81.8006C55.2596 82.523 57.3061 82.0637 58.416 80.8172C58.9356 80.1939 59.3526 79.5363 59.6648 78.8159C60.2551 77.6017 60.8089 76.3876 61.3628 75.1735C61.5018 74.9104 61.5381 74.5482 61.814 74.3843C61.8504 74.3519 61.8504 74.2872 61.8846 74.2528Z" fill="black"/>
<path d="M87.5784 74.2203C87.0245 73.9917 86.9197 74.024 86.5733 74.6797C85.8098 76.0921 85.117 77.5349 84.3535 78.913C83.4511 80.5864 82.585 82.2599 81.4409 83.7695C81.2677 84.0326 81.1287 84.3604 80.7481 84.4595C80.5385 84.0649 80.5385 83.7047 80.5385 83.3101C80.5043 82.0313 80.5385 80.718 80.6433 79.4391C80.8507 75.9282 81.0603 72.4497 81.0945 68.9368C81.0945 68.5442 81.0945 68.1497 80.9897 67.7551C80.9213 67.5588 80.8507 67.3625 80.6091 67.3625C79.6382 67.3625 78.6673 67.2633 77.7307 67.5588C77.4185 67.6579 77.2089 67.6903 76.8967 67.6256C76.1354 67.4616 75.372 67.3301 74.5743 67.494C72.1471 67.921 70.6545 69.3962 69.72 71.4319C68.9223 73.1377 68.6785 74.9427 68.8175 76.7801C68.8517 77.6664 69.025 78.5528 69.4077 79.4067C69.7542 80.2586 70.447 80.6208 71.3837 80.6208C72.1471 80.6532 72.8058 80.3902 73.3254 79.8661C73.8109 79.3399 74.2621 78.749 74.6427 78.1258C75.0255 77.5025 75.4062 76.8793 75.8232 76.2216C76.0648 76.4199 75.9622 76.6162 75.9964 76.7801C76.0648 78.061 76.099 79.3723 76.3428 80.6532C76.5503 82.0636 76.8283 83.4741 77.5575 84.755C78.5283 86.4608 81.0603 86.7563 82.446 85.3135C82.9657 84.7873 83.3827 84.1965 83.7291 83.5408C85.2218 80.8171 86.6417 78.0266 87.9612 75.2058C88.2734 74.5481 88.237 74.4834 87.5784 74.2203ZM76.8967 69.9547C76.8625 70.3149 76.794 70.7095 76.6208 71.0373C75.4404 73.6638 74.1573 76.2216 72.5984 78.6519C72.3546 79.0121 72.1814 79.5706 71.6253 79.4391C71.0715 79.3076 71.3495 78.7167 71.2789 78.3221C71.2789 78.1582 71.2789 77.9619 71.2789 77.7656C71.3495 75.4021 71.8349 73.1053 73.1864 71.0373C73.5692 70.4808 73.9841 69.9223 74.5059 69.4306C74.7817 69.1675 75.094 68.9712 75.511 68.8721C76.4113 68.6414 77.0015 69.0684 76.8967 69.9547Z" fill="black"/>
<path d="M85.6334 72.5145C85.843 74.9428 86.2942 77.3387 87.1945 79.6678C87.6457 80.9163 88.2701 82.096 89.1726 83.1463C89.8312 83.9334 90.6973 84.3948 91.7729 84.4919C93.4367 84.6558 94.7903 84.1965 95.8296 82.95C96.1418 82.5898 96.4198 82.1952 96.6979 81.835C98.1884 79.6354 98.9518 77.1747 99.9569 74.7789C99.9911 74.6797 99.9911 74.5826 99.9911 74.5158C100.025 74.3843 99.9569 74.2527 99.8521 74.188C99.2982 73.8278 98.6738 73.9917 98.3958 74.5482C98.3274 74.7465 98.2568 74.9104 98.1884 75.0743C97.2175 77.0756 96.3856 79.1437 95.2416 81.0458C94.893 81.6367 94.5123 82.2276 93.9563 82.6869C92.917 83.6056 92.1536 83.4741 91.5292 82.2943C91.4949 82.2276 91.4265 82.1304 91.3902 82.0313C90.5925 80.03 90.1071 77.9619 90.0044 75.8291C89.9702 75.4669 90.0729 75.1734 90.3166 74.878C92.6732 71.8245 94.3391 68.4451 95.7954 64.9666C96.4541 63.3923 96.8711 61.7512 96.9737 60.0777C97.0785 58.896 96.9737 57.7466 96.4883 56.6316C95.7954 55.0896 94.2343 54.3025 92.5 54.6303C91.1143 54.8913 90.0729 55.6461 89.2068 56.664C88.1996 57.8781 87.5409 59.2561 87.0213 60.6686C85.9114 63.6533 85.565 66.7069 85.4965 70.0862C85.5307 70.7095 85.5307 71.5958 85.6334 72.5145ZM89.658 72.2838C89.38 67.5588 89.8312 62.8986 91.5997 58.4366C91.8414 57.8457 92.0852 57.2872 92.4658 56.7631C93.0218 56.0083 93.4709 56.0407 93.9221 56.8947C94.4781 57.9105 94.6513 58.9951 94.5808 60.1425C94.4781 62.506 93.8879 64.7703 92.917 66.9355C92.1878 68.609 91.4265 70.2501 90.5241 71.8245C90.3166 72.1199 90.1434 72.4497 89.8996 72.8099C89.6216 72.6136 89.658 72.4497 89.658 72.2838Z" fill="black"/>
<path d="M40.0658 98.9983L40.0102 98.9599C39.6681 99.3585 39.0394 99.5548 38.4577 99.5548C36.9779 99.5548 35.9814 98.2435 35.9814 96.7077C35.9814 95.2993 36.7298 94.6133 37.7007 94.6133C38.9196 94.6133 39.4222 95.6615 39.0073 96.7077L39.0308 96.7158L40.1856 95.2467C39.8199 94.8237 39.1741 94.4554 38.1476 94.4554C36.5074 94.4554 34.7966 95.4045 34.7966 97.2115C34.7966 98.7879 36.1246 99.9393 37.9167 99.9393C39.0223 99.9393 39.7237 99.5103 40.0658 98.9983Z" fill="black"/>
<path d="M48.7701 94.5991V94.5607H46.4713V94.5991C46.7963 94.6355 47.0743 94.7185 47.0743 94.9897V97.167H44.3371V94.9897C44.3371 94.7185 44.6151 94.6355 44.9423 94.5991V94.5607H42.6413V94.5991C42.9663 94.6355 43.2465 94.7185 43.2465 94.9897V99.4051C43.2465 99.6762 42.9663 99.7592 42.6413 99.7956V99.8341H44.9423V99.7956C44.6151 99.7592 44.3371 99.6762 44.3371 99.4051V97.2945H47.0743V99.4051C47.0743 99.6762 46.7963 99.7592 46.4713 99.7956V99.8341H48.7701V99.7956C48.4451 99.7592 48.1671 99.6762 48.1671 99.4051V94.9897C48.1671 94.7185 48.4451 94.6355 48.7701 94.5991Z" fill="black"/>
<path d="M56.0343 98.2294C55.3821 99.2391 54.8795 99.7126 53.8531 99.7126H52.8031V97.2581H53.4724C54.4582 97.2581 54.8325 97.4604 55.0249 98.1464V96.2402C54.8325 96.9343 54.4582 97.1367 53.4724 97.1367H52.8031V94.6821H53.806C54.8325 94.6821 55.1426 95.0585 55.7477 95.9023L55.7798 95.8861L55.4847 94.5607H51.1073V94.5991C51.4323 94.6355 51.7124 94.7185 51.7124 94.9897V99.2533C51.7124 99.5245 51.4323 99.6843 51.1073 99.7956V99.8341H55.3265L55.598 100L55.6451 99.8341L56.0664 98.2435L56.0343 98.2294Z" fill="black"/>
<path d="M62.8304 94.5607H58.4038V94.5991C58.7289 94.6355 59.009 94.7185 59.009 94.9897V99.2533C59.009 99.5245 58.7289 99.6843 58.4038 99.7956V99.8341H60.7048V99.7956C60.3776 99.7592 60.0996 99.6762 60.0996 99.4051V97.3329H60.8395C61.819 97.3329 62.2017 97.5373 62.3921 98.2213V96.3151C62.2017 97.0092 61.819 97.2115 60.8395 97.2115H60.0996V94.6821H61.1496C62.1761 94.6821 62.4883 95.0585 63.0935 95.9023L63.1256 95.8861L62.8304 94.5607Z" fill="black"/>
</svg>
