<svg width="30" height="30" viewBox="0 0 30 30" fill="none" xmlns="http://www.w3.org/2000/svg">
<g clip-path="url(#clip0_66_652)">
<path d="M15 15C12.7267 15 10.5465 14.2098 8.93909 12.8033C7.33163 11.3968 6.42857 9.48912 6.42857 7.5C6.42857 5.51088 7.33163 3.60322 8.93909 2.1967C10.5465 0.790176 12.7267 0 15 0C17.2733 0 19.4535 0.790176 21.0609 2.1967C22.6684 3.60322 23.5714 5.51088 23.5714 7.5C23.5714 9.48912 22.6684 11.3968 21.0609 12.8033C19.4535 14.2098 17.2733 15 15 15ZM18.0603 17.8125C24.6562 17.8125 30 22.4883 30 28.2598C30 29.2207 29.1094 30 28.0112 30H1.98884C0.890627 30 0 29.2207 0 28.2598C0 22.4883 5.34375 17.8125 11.9397 17.8125H18.0603Z" fill="white"/>
</g>
<defs>
<clipPath id="clip0_66_652">
<rect width="30" height="30" fill="white" transform="matrix(-1 0 0 1 30 0)"/>
</clipPath>
</defs>
</svg>
